<svg xmlns="http://www.w3.org/2000/svg" viewBox="0 0 614.75 370.01"><defs><style>.cls-1{fill:#939d9d;}.cls-2{fill:#7b8484;}.cls-3{fill:#e2413e;}.cls-4{fill:#b5292a;}.cls-5,.cls-9{fill:#fff;}.cls-5{opacity:0.2;}.cls-6{fill:#abb7b7;}.cls-7{fill:#fafafa;}.cls-8{fill:#888;}.cls-10{fill:#e6e7e8;}.cls-11,.cls-13,.cls-14,.cls-15{fill:none;stroke:#4a525f;stroke-miterlimit:10;}.cls-11{stroke-width:0.68px;}.cls-12{fill:#d1d3d4;}.cls-13{stroke-width:0.63px;}.cls-14{stroke-width:0.7px;}.cls-15{stroke-width:0.99px;}.cls-16{fill:#f9c82e;}.cls-17{fill:#e0b429;}.cls-18{fill:#f7e041;}.cls-19{fill:#424242;}</style></defs><title>Asset 2</title><g id="Layer_2" data-name="Layer 2"><g id="Layer_1-2" data-name="Layer 1"><polygon class="cls-1" points="92.64 259.55 86.31 265.88 82.68 269.51 76.35 275.84 86.92 299.32 129.31 323.03 132.76 319.58 136.38 315.96 139.83 312.51 116.12 270.12 92.64 259.55"/><path class="cls-2" d="M132.45,315.58h0a1.12,1.12,0,0,1-1.59,0L98.31,283a1.13,1.13,0,0,1,0-1.58h0a1.12,1.12,0,0,1,1.59,0L132.45,314A1.11,1.11,0,0,1,132.45,315.58Z"/><path class="cls-2" d="M136.31,311.73h0a1.14,1.14,0,0,1-1.59,0l-32.55-32.55a1.12,1.12,0,0,1,0-1.59h0a1.14,1.14,0,0,1,1.59,0l32.55,32.55A1.14,1.14,0,0,1,136.31,311.73Z"/><path class="cls-2" d="M128.59,319.44h0a1.11,1.11,0,0,1-1.58,0L94.46,286.89a1.11,1.11,0,0,1,0-1.58h0a1.11,1.11,0,0,1,1.58,0l32.55,32.55A1.11,1.11,0,0,1,128.59,319.44Z"/><rect class="cls-1" x="292.03" y="207.63" width="21.82" height="9.36"/><rect class="cls-3" x="200.72" width="204.66" height="207.63" rx="2.4"/><path class="cls-4" d="M400.21,0H303.55V207.63h96.66a5.16,5.16,0,0,0,5.16-5.16V5.16A5.16,5.16,0,0,0,400.21,0Z"/><rect class="cls-5" x="226.65" width="30.11" height="207.63"/><rect class="cls-6" x="196.54" y="183.42" width="214.02" height="10.57" rx="2.07"/><path class="cls-7" d="M226.65,188.7h0a4.33,4.33,0,0,1-4.32-4.32v-18.6a4.33,4.33,0,0,1,4.32-4.32h0a4.33,4.33,0,0,1,4.32,4.32v18.6A4.33,4.33,0,0,1,226.65,188.7Z"/><path class="cls-7" d="M303.55,188.7h0a4.33,4.33,0,0,1-4.32-4.32v-18.6a4.33,4.33,0,0,1,4.32-4.32h0a4.33,4.33,0,0,1,4.32,4.32v18.6A4.33,4.33,0,0,1,303.55,188.7Z"/><path class="cls-7" d="M380.45,188.7h0a4.33,4.33,0,0,1-4.32-4.32v-18.6a4.33,4.33,0,0,1,4.32-4.32h0a4.33,4.33,0,0,1,4.32,4.32v18.6A4.33,4.33,0,0,1,380.45,188.7Z"/><rect class="cls-6" x="196.54" y="13.64" width="214.02" height="10.57" rx="2.07"/><path class="cls-8" d="M406.11,13.64H303.55V24.22H406.11a4.45,4.45,0,0,0,4.45-4.45V18.09A4.45,4.45,0,0,0,406.11,13.64Z"/><path class="cls-7" d="M226.65,18.93h0a4.33,4.33,0,0,0-4.32,4.32v18.6a4.33,4.33,0,0,0,4.32,4.32h0A4.33,4.33,0,0,0,231,41.85V23.25A4.33,4.33,0,0,0,226.65,18.93Z"/><path class="cls-7" d="M303.55,18.93h0a4.33,4.33,0,0,0-4.32,4.32v18.6a4.33,4.33,0,0,0,4.32,4.32h0a4.33,4.33,0,0,0,4.32-4.32V23.25A4.33,4.33,0,0,0,303.55,18.93Z"/><path class="cls-7" d="M380.45,18.93h0a4.33,4.33,0,0,0-4.32,4.32v18.6a4.33,4.33,0,0,0,4.32,4.32h0a4.33,4.33,0,0,0,4.32-4.32V23.25A4.33,4.33,0,0,0,380.45,18.93Z"/><path class="cls-7" d="M214.16,222.72a3.22,3.22,0,1,1-3.22-3.22A3.22,3.22,0,0,1,214.16,222.72Z"/><path class="cls-7" d="M214.16,343.22a3.22,3.22,0,1,1-3.22-3.21A3.22,3.22,0,0,1,214.16,343.22Z"/><circle class="cls-7" cx="168.33" cy="240.36" r="3.21"/><path class="cls-7" d="M255.82,323.3a3.22,3.22,0,1,1-4.55,0A3.21,3.21,0,0,1,255.82,323.3Z"/><path class="cls-7" d="M166.06,323.3a3.22,3.22,0,1,1,0,4.55A3.23,3.23,0,0,1,166.06,323.3Z"/><circle class="cls-7" cx="253.55" cy="240.36" r="3.21"/><path class="cls-7" d="M274.41,283a3.22,3.22,0,1,1-3.21-3.21A3.22,3.22,0,0,1,274.41,283Z"/><path class="cls-7" d="M153.9,283a3.22,3.22,0,1,1-3.21-3.21A3.22,3.22,0,0,1,153.9,283Z"/><path class="cls-6" d="M271.2,283a60.26,60.26,0,1,1-60.26-60.25A60.25,60.25,0,0,1,271.2,283Z"/><circle class="cls-9" cx="210.94" cy="282.97" r="55.48"/><path class="cls-10" d="M210.94,227.49v111a55.48,55.48,0,1,0,0-111Z"/><path class="cls-11" d="M262,283a51.07,51.07,0,1,1-51.07-51.07A51.06,51.06,0,0,1,262,283Z"/><circle class="cls-12" cx="210.94" cy="282.97" r="23.88"/><path class="cls-7" d="M241.8,64.14a3,3,0,1,1-3-3A3,3,0,0,1,241.8,64.14Z"/><path class="cls-7" d="M241.8,175.65a3,3,0,1,1-3-3A3,3,0,0,1,241.8,175.65Z"/><path class="cls-7" d="M201.5,78.37a3,3,0,1,1-4.2,0A3,3,0,0,1,201.5,78.37Z"/><path class="cls-7" d="M280.35,157.22a3,3,0,1,1-4.2,0A3,3,0,0,1,280.35,157.22Z"/><path class="cls-7" d="M197.3,157.22a3,3,0,1,1,0,4.21A3,3,0,0,1,197.3,157.22Z"/><path class="cls-7" d="M276.15,78.37a3,3,0,1,1,0,4.21A3,3,0,0,1,276.15,78.37Z"/><path class="cls-7" d="M297.55,119.9a3,3,0,1,1-3-3A3,3,0,0,1,297.55,119.9Z"/><path class="cls-7" d="M186.05,119.9a3,3,0,1,1-3-3A3,3,0,0,1,186.05,119.9Z"/><circle class="cls-6" cx="238.82" cy="119.9" r="55.75" transform="translate(-26.89 91.46) rotate(-20.55)"/><path class="cls-9" d="M290.16,119.9a51.34,51.34,0,1,1-51.34-51.34A51.33,51.33,0,0,1,290.16,119.9Z"/><path class="cls-10" d="M238.82,68.56V171.23a51.34,51.34,0,1,0,0-102.67Z"/><circle class="cls-13" cx="238.82" cy="119.9" r="47.26" transform="translate(-14.83 203.99) rotate(-45)"/><path class="cls-12" d="M260.92,119.9a22.1,22.1,0,1,1-22.1-22.1A22.1,22.1,0,0,1,260.92,119.9Z"/><path class="cls-7" d="M372.42,55.46a3.27,3.27,0,1,1-3.27-3.26A3.26,3.26,0,0,1,372.42,55.46Z"/><path class="cls-7" d="M372.42,177.81a3.27,3.27,0,1,1-3.27-3.27A3.26,3.26,0,0,1,372.42,177.81Z"/><path class="cls-7" d="M328.21,71.07a3.27,3.27,0,1,1-4.62,0A3.28,3.28,0,0,1,328.21,71.07Z"/><circle class="cls-7" cx="412.41" cy="159.89" r="3.26"/><path class="cls-7" d="M323.59,157.58a3.27,3.27,0,1,1,0,4.62A3.28,3.28,0,0,1,323.59,157.58Z"/><circle class="cls-7" cx="412.41" cy="73.38" r="3.26"/><circle class="cls-7" cx="430.33" cy="116.63" r="3.26"/><circle class="cls-7" cx="307.98" cy="116.63" r="3.26"/><path class="cls-6" d="M430.33,116.63a61.18,61.18,0,1,1-61.18-61.17A61.18,61.18,0,0,1,430.33,116.63Z"/><path class="cls-9" d="M425.48,116.63a56.33,56.33,0,1,1-56.33-56.32A56.33,56.33,0,0,1,425.48,116.63Z"/><path class="cls-10" d="M425.48,116.63a56.33,56.33,0,0,0-56.33-56.32V173A56.33,56.33,0,0,0,425.48,116.63Z"/><path class="cls-14" d="M421,116.63a51.85,51.85,0,1,1-51.85-51.84A51.84,51.84,0,0,1,421,116.63Z"/><path class="cls-12" d="M393.4,116.63a24.25,24.25,0,1,1-24.25-24.24A24.25,24.25,0,0,1,393.4,116.63Z"/><path class="cls-7" d="M469.19,191.54a4.64,4.64,0,1,1-4.64-4.64A4.63,4.63,0,0,1,469.19,191.54Z"/><path class="cls-7" d="M469.19,365.37a4.64,4.64,0,1,1-4.64-4.63A4.64,4.64,0,0,1,469.19,365.37Z"/><path class="cls-7" d="M406.37,213.72a4.64,4.64,0,1,1-6.56,0A4.63,4.63,0,0,1,406.37,213.72Z"/><circle class="cls-7" cx="526.01" cy="339.92" r="4.64"/><circle class="cls-7" cx="403.09" cy="339.92" r="4.64"/><path class="cls-7" d="M522.74,213.72a4.63,4.63,0,1,1,0,6.55A4.61,4.61,0,0,1,522.74,213.72Z"/><path class="cls-7" d="M556.11,278.46a4.64,4.64,0,1,1-4.64-4.64A4.63,4.63,0,0,1,556.11,278.46Z"/><path class="cls-7" d="M382.27,278.46a4.64,4.64,0,1,1-4.64-4.64A4.63,4.63,0,0,1,382.27,278.46Z"/><circle class="cls-6" cx="464.55" cy="278.46" r="86.92" transform="translate(-75.62 238.93) rotate(-26.75)"/><circle class="cls-9" cx="464.55" cy="278.46" r="80.03"/><path class="cls-10" d="M544.58,278.46a80,80,0,0,0-80-80V358.48A80,80,0,0,0,544.58,278.46Z"/><circle class="cls-15" cx="464.55" cy="278.46" r="73.67" transform="translate(85.45 665.28) rotate(-76.52)"/><circle class="cls-12" cx="464.55" cy="278.46" r="34.45" transform="translate(86.18 665.99) rotate(-76.62)"/><path class="cls-16" d="M54.5,291a54.5,54.5,0,1,1,54.5-54.5A54.5,54.5,0,0,1,54.5,291Z"/><path class="cls-17" d="M109,236.49A54.5,54.5,0,0,0,54.5,182V291A54.5,54.5,0,0,0,109,236.49Z"/><path class="cls-18" d="M54.5,254.06a17.57,17.57,0,1,1,17.57-17.57A17.57,17.57,0,0,1,54.5,254.06Z"/><path class="cls-19" d="M54.5,244.56a8.07,8.07,0,1,1,8.06-8.07A8.07,8.07,0,0,1,54.5,244.56Z"/><path class="cls-6" d="M54.5,240A3.48,3.48,0,1,1,58,236.49,3.48,3.48,0,0,1,54.5,240Z"/><path class="cls-5" d="M8.35,236.49h13.4A32.79,32.79,0,0,1,54.5,203.74h0v-13.4h0A46.2,46.2,0,0,0,8.35,236.49Z"/><path class="cls-5" d="M100.65,236.49H87.25A32.79,32.79,0,0,1,54.5,269.24h0v13.4h0a46.2,46.2,0,0,0,46.15-46.15Z"/><polygon class="cls-1" points="315.07 216.99 306.11 216.99 300.99 216.99 292.03 216.99 282.9 241.07 296.11 287.81 300.99 287.81 306.11 287.81 310.99 287.81 324.2 241.07 315.07 216.99"/><path class="cls-6" d="M324.47,221.27H282.4a2.14,2.14,0,0,1-2.14-2.14h0A2.14,2.14,0,0,1,282.4,217h42.07a2.14,2.14,0,0,1,2.14,2.14h0A2.14,2.14,0,0,1,324.47,221.27Z"/><path class="cls-19" d="M313.85,221.27a10.3,10.3,0,1,1-10.3-10.3A10.31,10.31,0,0,1,313.85,221.27Z"/><path class="cls-9" d="M307.93,221a4.38,4.38,0,1,1-4.38-4.38A4.38,4.38,0,0,1,307.93,221Z"/><path class="cls-1" d="M284.18,219.13a1.62,1.62,0,1,1-3.23,0,1.62,1.62,0,0,1,3.23,0Z"/><path class="cls-1" d="M325.81,219.13a1.62,1.62,0,1,1-1.61-1.61A1.62,1.62,0,0,1,325.81,219.13Z"/><path class="cls-2" d="M303.6,284.77h0a1.14,1.14,0,0,1-1.13-1.13v-46a1.13,1.13,0,0,1,1.13-1.12h0a1.13,1.13,0,0,1,1.12,1.12v46A1.13,1.13,0,0,1,303.6,284.77Z"/><path class="cls-2" d="M309.05,284.77h0a1.13,1.13,0,0,1-1.12-1.13v-46a1.12,1.12,0,0,1,1.12-1.12h0a1.12,1.12,0,0,1,1.12,1.12v46A1.13,1.13,0,0,1,309.05,284.77Z"/><path class="cls-2" d="M298.14,284.77h0a1.13,1.13,0,0,1-1.12-1.13v-46a1.12,1.12,0,0,1,1.12-1.12h0a1.12,1.12,0,0,1,1.12,1.12v46A1.13,1.13,0,0,1,298.14,284.77Z"/><path class="cls-6" d="M534,164.14h0a4.38,4.38,0,0,1,0-6.19l65.31-65.31a4.38,4.38,0,0,1,6.19,0h0a4.38,4.38,0,0,1,0,6.19l-65.31,65.31A4.38,4.38,0,0,1,534,164.14Z"/><circle class="cls-16" cx="511.81" cy="186.1" r="88.61" transform="translate(200 632.59) rotate(-75.05)"/><path class="cls-17" d="M600.41,186.1a88.61,88.61,0,0,0-88.6-88.61V274.7A88.6,88.6,0,0,0,600.41,186.1Z"/><path class="cls-18" d="M511.81,214.67a28.57,28.57,0,1,1,28.56-28.57A28.57,28.57,0,0,1,511.81,214.67Z"/><path class="cls-19" d="M511.81,199.21a13.12,13.12,0,1,1,13.11-13.11A13.11,13.11,0,0,1,511.81,199.21Z"/><path class="cls-6" d="M511.81,191.76a5.66,5.66,0,1,1,5.65-5.66A5.66,5.66,0,0,1,511.81,191.76Z"/><path class="cls-5" d="M436.78,186.1h21.77a53.32,53.32,0,0,1,53.26-53.26h0V111.07h0A75.11,75.11,0,0,0,436.78,186.1Z"/><path class="cls-5" d="M586.83,186.1H565.06a53.31,53.31,0,0,1-53.25,53.25h0v21.78h0a75.11,75.11,0,0,0,75-75Z"/><path class="cls-19" d="M599.3,106.21l13.8-13.8a5.46,5.46,0,0,0,.37-7.41,5.33,5.33,0,0,0-7.78-.25L591.77,98.67a1.28,1.28,0,0,0,0,1.81l5.72,5.73A1.28,1.28,0,0,0,599.3,106.21Z"/><path class="cls-6" d="M117.91,130.9h0a4.38,4.38,0,0,1-6.19,0L46.41,65.6a4.39,4.39,0,0,1,0-6.2h0a4.38,4.38,0,0,1,6.19,0l65.31,65.31A4.38,4.38,0,0,1,117.91,130.9Z"/><path class="cls-16" d="M115.73,200.69a70.21,70.21,0,1,1,70.21-70.21A70.21,70.21,0,0,1,115.73,200.69Z"/><path class="cls-17" d="M185.94,130.48a70.21,70.21,0,0,0-70.21-70.21V200.69A70.22,70.22,0,0,0,185.94,130.48Z"/><circle class="cls-18" cx="115.73" cy="130.48" r="22.64" transform="translate(-31.55 223.89) rotate(-80.81)"/><path class="cls-19" d="M115.73,140.87a10.39,10.39,0,1,1,10.39-10.39A10.39,10.39,0,0,1,115.73,140.87Z"/><path class="cls-6" d="M115.73,135a4.49,4.49,0,1,1,4.48-4.48A4.49,4.49,0,0,1,115.73,135Z"/><path class="cls-5" d="M56.28,130.48H73.53a42.25,42.25,0,0,1,42.2-42.2h0V71h0A59.52,59.52,0,0,0,56.28,130.48Z"/><path class="cls-5" d="M175.18,130.48H157.92a42.24,42.24,0,0,1-42.19,42.19h0v17.26h0a59.52,59.52,0,0,0,59.45-59.45Z"/><path class="cls-19" d="M55.08,60.5,41.29,46.71a5.44,5.44,0,0,0-7.41-.37,5.33,5.33,0,0,0-.26,7.78L47.54,68a1.29,1.29,0,0,0,1.82,0l5.72-5.73A1.28,1.28,0,0,0,55.08,60.5Z"/></g></g></svg>